<svg width="266" height="40" viewBox="0 0 266 40" fill="none" xmlns="http://www.w3.org/2000/svg">
<g opacity="0.9">
<mask id="mask0_3266_757" style="mask-type:luminance" maskUnits="userSpaceOnUse" x="0" y="0" width="266" height="40">
<path d="M265.939 0H0V40H265.939V0Z" fill="white"/>
</mask>
<g mask="url(#mask0_3266_757)">
<path d="M42.8499 0L46.9203 11.2752C39.508 14.4521 31.5265 16.0864 23.462 16.0784C15.396 16.0872 7.41273 14.4516 0 11.2714L4.07045 0C10.1741 2.72773 16.7861 4.1323 23.4715 4.1213C30.1494 4.13007 36.7535 2.72554 42.8499 0ZM23.462 28.043C16.7798 28.0526 10.1712 26.6481 4.07045 23.9216L0 35.1931C7.41273 38.3732 15.396 40.0088 23.462 40C31.5262 40.0078 39.5077 38.3742 46.9203 35.1987L42.8499 23.9216C36.7506 26.6485 30.1431 28.0531 23.462 28.043ZM225.668 19.2541C225.713 22.0345 225.19 24.7948 224.132 27.3661C223.073 29.9374 221.5 32.2654 219.51 34.2077C217.52 36.1499 215.155 37.6655 212.558 38.6615C209.962 39.6574 207.19 40.1129 204.411 40H191.098V0H205.268C218.755 0 225.668 9.41797 225.668 19.2541ZM216.438 19.2541C216.438 13.5393 213.048 8.47994 205.453 8.47994H200.226V31.5201H204.319C212.513 31.5201 216.438 25.4455 216.438 19.2541ZM145.681 40L136.828 23.236C138.784 22.2446 140.415 20.7144 141.529 18.826C142.643 16.9376 143.194 14.7698 143.115 12.5786C143.115 6.31381 138.727 0 128.122 0H112.144V40H121.268V25.1045H127.819L135.472 40H145.681ZM121.268 17.3121V8.47617H126.201C130.887 8.47617 133.502 9.36523 133.502 12.8084C133.502 16.6566 130.488 17.297 126.201 17.297L121.268 17.3121ZM93.8915 0H82.6446L68.3914 40H77.7623L80.4464 32.0757H96.0897L98.7738 40H108.145L93.8915 0ZM83.2078 23.9216L88.269 8.97721L93.3283 23.9216H83.2078ZM172.558 0H161.311L147.058 40H156.429L159.113 32.0757H174.756L177.435 40H186.805L172.558 0ZM161.874 23.9216L166.934 8.97721L171.995 23.9216H161.874ZM251.686 0H240.439L226.186 40H235.557L238.241 32.0757H253.884L256.568 40H265.939L251.686 0ZM241.002 23.9216L246.063 8.97721L251.123 23.9216H241.002Z" fill="white"/>
</g>
</g>
</svg>
