<svg width="204" height="40" viewBox="0 0 204 40" fill="none" xmlns="http://www.w3.org/2000/svg">
<g opacity="0.9">
<path d="M29.4746 35.9954L28.8711 39.975H0C1.19458 37.2218 1.11913 35.67 1.11913 33.6802V6.32351C1.11913 4.39628 1.19458 2.70682 0 0.0287229H8.65126H28.1669L28.2172 4.08342C27.689 3.87067 27.2615 3.68295 26.8717 3.50775C25.828 3.1198 24.5077 2.75688 23.1371 2.7694C20.9491 2.7694 11.7697 2.7694 7.69559 2.7694V18.4125H25.8154L24.9227 21.4911H7.69559V37.1467C11.0278 37.1467 21.6784 37.1467 24.0299 37.1467C26.7837 37.1968 29.5249 35.645 29.5249 35.645L29.4495 35.9828C29.4495 35.9954 29.4621 35.9954 29.4746 35.9954ZM72.9321 39.975C73.3219 38.0102 73.3219 35.232 73.0075 32.9669L70.4424 14.1451L56.4344 39.9625H53.7686L39.5342 12.9812L36.7678 33.3798C36.466 35.7326 36.378 38.711 36.6295 39.975H31.6249C32.5931 37.9351 32.832 37.0466 33.2847 33.6927L37.8115 0.0287229H40.1127L56.7236 31.4401L73.3219 0.0287229H75.0572L79.7349 33.6176C80.2002 36.959 80.5522 37.9226 81.4828 39.975H72.9321ZM115.094 39.975L108.43 25.3455H95.0255L88.449 39.975H87.8832H83.2432H83.218C84.8779 37.9226 85.4437 36.9715 86.6132 34.4185L102.155 0.0287229H103.903L119.194 33.4549C120.828 36.7212 121.595 37.7349 123.934 39.975H115.094ZM157.03 39.975L150.366 25.3455H136.961L130.385 39.975H129.832H125.179H125.154C126.814 37.9226 127.38 36.9715 128.549 34.4185L144.091 0.0287229H145.839L161.142 33.4549C162.777 36.7212 163.544 37.7349 165.883 39.975H157.03ZM195.03 40C191.019 36.3583 185.826 31.5277 179.325 23.8688C177.464 21.7038 176.156 21.4285 175.314 21.3784V33.6802C175.314 35.6575 175.314 37.2218 176.445 39.975H167.618C168.813 37.2218 168.737 35.67 168.737 33.6802V6.29848C168.737 4.37125 168.813 2.68179 167.618 0.00369391H176.269C182.179 0.00369391 196.15 -0.521915 196.15 10.9664C196.15 17.0359 191.308 20.3022 185.625 21.1282L183.94 21.2908C183.94 21.2908 202.374 39.2241 203.166 40H195.03ZM184.581 18.838L184.569 18.8505C188.291 17.4489 189.548 13.9323 189.422 10.9539C189.284 8.08805 187.989 1.85584 175.326 2.35642V19.3886C175.326 19.3886 182.418 19.7766 184.405 18.9131C184.518 18.863 184.581 18.838 184.581 18.838ZM138.244 22.5548H149.071L143.613 10.6285L138.244 22.5548ZM96.3207 22.5548H107.147L101.69 10.6285L96.3207 22.5548Z" fill="white"/>
</g>
</svg>
