<svg width="278" height="30" viewBox="0 0 278 30" fill="none" xmlns="http://www.w3.org/2000/svg">
<path opacity="0.9" d="M277.788 0.295834L277.912 0.0301872H253.548C246.366 0.0301872 240.248 1.32823 235.19 3.92434C230.284 6.38932 226.452 10.234 224.304 14.846C222.888 17.8285 222.484 20.5374 223.094 22.9724C223.422 24.2072 224.082 25.3536 225.02 26.3136C225.958 27.2736 227.144 28.0184 228.48 28.4846C231.126 29.4948 235.54 30 241.718 30H263.73L265.924 25.2426H253.548C247.57 25.2426 243.592 24.5622 241.614 23.2018C239.434 21.7348 239.68 18.3296 241.382 14.7494C244.334 8.51882 250.514 4.63674 259.062 4.63674H268.65L266.444 9.31576H273.75L278 0.295834H277.788ZM192.436 18.0036L207.26 5.2586L210.342 18.0036H192.436ZM66.3802 18.0519L80.814 5.85028L83.4178 18.0519H66.3802ZM205.988 0H196.961L162.222 28.7382L175.795 0.0301872H160.91L142.923 12.4794L133.663 19.199H133.266L137.626 9.41236L132.289 0.0301872H117.336L103.736 28.7926L95.897 0.0301872H79.495L43.274 30H52.3566L61.61 22.1514H84.4156L86.2334 30H110.467L119.229 11.4711C119.673 10.5414 120.09 9.47274 120.507 8.27732C120.576 9.34122 120.873 10.3839 121.382 11.3504L129.09 26.8062H130.389L152.436 11.4107C153.751 10.428 155.003 9.38192 156.188 8.27732C155.334 9.67196 154.739 10.7346 154.391 11.4711L145.629 30H161.628H178.495L187.646 22.1514H211.332L213.232 30H221.564L213.452 0H205.988ZM47.3402 22.9724C50.1214 20.6952 52.3288 17.9264 53.819 14.846C56.0332 10.161 55.8442 6.52042 53.2518 3.92434C50.6594 1.32823 45.766 0.0301872 38.572 0.0301872H14.2287L12.0281 4.72128H28.7924C37.3418 4.72128 39.8226 8.48862 36.8704 14.7193C35.1686 18.3417 33.6582 21.6442 30.0976 23.1234C26.8446 24.4758 23.4754 24.8742 17.4955 24.8742H9.73868L15.5272 12.739H8.201L0 30H22.0676C28.2546 30 33.1434 29.4948 36.7336 28.4846C40.6878 27.3642 44.3108 25.4814 47.3402 22.9724Z" fill="white"/>
</svg>
