<svg width="287" height="50" viewBox="0 0 287 50" fill="none" xmlns="http://www.w3.org/2000/svg">
<g opacity="0.9">
<path d="M282.763 26.0751L271.642 10.0347V26.0751H266.592V0H270.524L281.645 16.0403V0H286.694V26.0751H282.763ZM256.905 26.0751L250.063 6.62465L243.319 26.0751H237.846L247.283 0H252.876L262.281 26.0751H256.905ZM229.505 26.0751L218.385 12.6629L229.158 0H235.272L224.738 12.7172L235.619 26.0751H229.505ZM211.825 26.0751V0H216.875V26.0751H211.825ZM200.194 26.0751L194.644 16.5725V12.2828H196.197C198.12 12.2828 199.673 10.6103 199.673 8.54688C199.673 6.48347 198.109 4.81102 196.197 4.81102H190.746V26.0751H185.696V0H196.197C198.576 0 200.607 0.847087 202.225 2.50868C203.875 4.12683 204.723 6.15767 204.723 8.54688C204.723 11.6963 202.811 14.6828 199.944 16.0512L205.787 26.0751H200.194ZM174.434 26.0751L167.592 6.62465L160.848 26.0751H155.374L164.812 0H170.426L179.831 26.0751H174.434ZM111.706 26.0751L104.864 6.62465L98.12 26.0751H92.6465L102.084 0H107.688L117.093 26.0751H111.706ZM122.957 26.0751V0H128.007V21.1989H138.226V26.0751H122.957Z" fill="white"/>
<path d="M0 26.0751V0H10.3171C13.8792 0 16.8766 1.27063 19.2223 3.77931C21.5898 6.26627 22.7845 9.38311 22.7845 13.043C22.7845 16.6702 21.579 19.7871 19.2115 22.3066C16.8548 24.8153 13.8683 26.0859 10.3062 26.0859H0V26.0751ZM10.3171 21.1989C12.5325 21.1989 14.3679 20.4278 15.7471 18.9074C17.1698 17.387 17.8866 15.4105 17.8866 13.043C17.8866 10.6429 17.1915 8.72064 15.758 7.17851C14.3787 5.6581 12.5434 4.88704 10.3279 4.88704H5.04994V21.1989H10.3171Z" fill="white"/>
<path d="M45.5253 26.0751L38.6834 6.62465L31.9393 26.0751H26.4658L35.9141 0H41.507L50.9119 26.0751H45.5253Z" fill="white"/>
<path d="M71.2756 26.0751L65.7261 16.5725V12.2828H67.2682C69.1904 12.2828 70.7434 10.6103 70.7434 8.54688C70.7434 6.48347 69.1796 4.81102 67.2682 4.81102H61.8273V26.0751H56.7773V0H67.279C69.6574 0 71.6882 0.847087 73.3064 2.50868C74.9571 4.12683 75.8042 6.15767 75.8042 8.54688C75.8042 11.7072 73.8928 14.6828 71.0258 16.0621L76.8685 26.0859H71.2756V26.0751Z" fill="white"/>
<path d="M102.943 36.6747V45.9166C102.943 46.3184 103.03 46.6008 103.193 46.742C103.367 46.8832 103.649 46.9592 104.04 46.9592V47.2633C103.877 47.2524 103.627 47.2415 103.291 47.2307C102.954 47.2198 102.617 47.209 102.281 47.209C101.955 47.209 101.618 47.2198 101.282 47.2307C100.945 47.2415 100.695 47.2524 100.532 47.2633V46.9592C100.923 46.9592 101.206 46.8832 101.379 46.742C101.553 46.6008 101.629 46.3184 101.629 45.9166V38.4123C101.629 37.9779 101.553 37.6521 101.401 37.4457C101.249 37.2394 100.956 37.1308 100.532 37.1308V36.8267C100.836 36.8593 101.14 36.8702 101.434 36.8702C101.716 36.8702 101.977 36.8484 102.237 36.8159C102.498 36.7941 102.737 36.7507 102.943 36.6747Z" fill="white"/>
<path d="M115.878 39.6503V45.9166C115.878 46.3184 115.965 46.6008 116.128 46.742C116.301 46.8832 116.584 46.9592 116.975 46.9592V47.2633C116.812 47.2524 116.562 47.2415 116.225 47.2307C115.889 47.2198 115.552 47.209 115.215 47.209C114.889 47.209 114.553 47.2198 114.216 47.2307C113.879 47.2415 113.63 47.2524 113.467 47.2633V46.9592C113.858 46.9592 114.14 46.8832 114.314 46.742C114.488 46.6008 114.564 46.3184 114.564 45.9166V41.388C114.564 40.9536 114.488 40.6278 114.336 40.4214C114.184 40.2151 113.89 40.1065 113.467 40.1065V39.8024C113.771 39.835 114.075 39.8458 114.368 39.8458C114.651 39.8458 114.911 39.8241 115.172 39.7915C115.432 39.7698 115.661 39.7264 115.878 39.6503ZM115.128 36.6747C115.378 36.6747 115.595 36.7616 115.78 36.9462C115.965 37.1308 116.051 37.348 116.051 37.5978C116.051 37.8476 115.965 38.0648 115.78 38.2494C115.595 38.434 115.378 38.5209 115.128 38.5209C114.879 38.5209 114.661 38.434 114.477 38.2494C114.292 38.0648 114.205 37.8476 114.205 37.5978C114.205 37.348 114.292 37.1308 114.477 36.9462C114.661 36.7724 114.879 36.6747 115.128 36.6747Z" fill="white"/>
<path d="M133.026 39.8131V40.1063C132.841 40.1281 132.678 40.2041 132.516 40.3561C132.363 40.4973 132.211 40.7579 132.081 41.1272L129.703 47.35C129.659 47.35 129.627 47.35 129.583 47.35C129.54 47.35 129.496 47.35 129.453 47.35L126.792 40.9317C126.64 40.5516 126.488 40.3235 126.336 40.2475C126.184 40.1606 126.054 40.1281 125.956 40.1281V39.824C126.152 39.8348 126.347 39.8457 126.553 39.8566C126.76 39.8674 126.988 39.8783 127.227 39.8783C127.531 39.8783 127.846 39.8783 128.172 39.8674C128.508 39.8566 128.812 39.8457 129.105 39.824V40.1281C128.867 40.1281 128.649 40.1498 128.465 40.1824C128.28 40.2149 128.161 40.3127 128.106 40.4647C128.052 40.6168 128.095 40.8883 128.248 41.2575L130.061 45.7319L129.974 45.8079L131.625 41.4747C131.81 40.9969 131.831 40.6493 131.69 40.4647C131.549 40.2692 131.223 40.1606 130.713 40.1172V39.824C130.963 39.8348 131.169 39.8457 131.343 39.8566C131.516 39.8674 131.712 39.8674 131.929 39.8674C132.146 39.8674 132.353 39.8674 132.526 39.8566C132.7 39.8348 132.874 39.824 133.026 39.8131Z" fill="white"/>
<path d="M144.581 39.6503V45.9166C144.581 46.3184 144.668 46.6008 144.831 46.742C145.004 46.8832 145.287 46.9592 145.678 46.9592V47.2633C145.515 47.2524 145.265 47.2415 144.928 47.2307C144.592 47.2198 144.255 47.209 143.918 47.209C143.593 47.209 143.256 47.2198 142.919 47.2307C142.583 47.2415 142.333 47.2524 142.17 47.2633V46.9592C142.561 46.9592 142.843 46.8832 143.017 46.742C143.191 46.6008 143.267 46.3184 143.267 45.9166V41.388C143.267 40.9536 143.191 40.6278 143.039 40.4214C142.887 40.2151 142.593 40.1065 142.17 40.1065V39.8024C142.474 39.835 142.778 39.8458 143.071 39.8458C143.354 39.8458 143.614 39.8241 143.875 39.7915C144.136 39.7698 144.375 39.7264 144.581 39.6503ZM143.832 36.6747C144.081 36.6747 144.299 36.7616 144.483 36.9462C144.668 37.1308 144.755 37.348 144.755 37.5978C144.755 37.8476 144.668 38.0648 144.483 38.2494C144.299 38.434 144.081 38.5209 143.832 38.5209C143.582 38.5209 143.365 38.434 143.18 38.2494C142.995 38.0648 142.908 37.8476 142.908 37.5978C142.908 37.348 142.995 37.1308 143.18 36.9462C143.365 36.7724 143.582 36.6747 143.832 36.6747Z" fill="white"/>
<path d="M159.981 39.6068C160.351 39.6068 160.655 39.6503 160.904 39.748C161.154 39.8457 161.361 39.9761 161.523 40.1498C161.708 40.3453 161.838 40.5842 161.914 40.8774C161.99 41.1707 162.034 41.5616 162.034 42.0503V45.9165C162.034 46.3183 162.121 46.6007 162.284 46.7419C162.457 46.8831 162.74 46.9591 163.131 46.9591V47.2632C162.968 47.2523 162.718 47.2415 162.381 47.2306C162.045 47.2197 161.719 47.2089 161.393 47.2089C161.078 47.2089 160.763 47.2197 160.459 47.2306C160.155 47.2415 159.927 47.2523 159.775 47.2632V46.9591C160.122 46.9591 160.372 46.8831 160.513 46.7419C160.655 46.6007 160.731 46.3183 160.731 45.9165V41.7354C160.731 41.4313 160.709 41.1598 160.655 40.91C160.611 40.6602 160.503 40.4539 160.329 40.3019C160.155 40.1498 159.905 40.0738 159.558 40.0738C158.95 40.0738 158.461 40.3236 158.092 40.834C157.722 41.3444 157.538 41.9635 157.538 42.7128V45.9274C157.538 46.3292 157.614 46.6116 157.755 46.7527C157.896 46.8939 158.146 46.9699 158.493 46.9699V47.274C158.341 47.2632 158.113 47.2523 157.809 47.2414C157.505 47.2306 157.19 47.2197 156.875 47.2197C156.56 47.2197 156.224 47.2306 155.887 47.2414C155.55 47.2523 155.301 47.2632 155.138 47.274V46.9699C155.529 46.9699 155.811 46.8939 155.985 46.7527C156.159 46.6116 156.235 46.3292 156.235 45.9274V41.3879C156.235 40.9535 156.159 40.6277 156.007 40.4213C155.854 40.215 155.561 40.1064 155.138 40.1064V39.8023C155.442 39.8349 155.746 39.8457 156.039 39.8457C156.321 39.8457 156.582 39.824 156.843 39.7914C157.103 39.7589 157.331 39.7046 157.549 39.6394V41.3444C157.798 40.6928 158.146 40.2367 158.602 39.9761C159.015 39.7371 159.482 39.6068 159.981 39.6068Z" fill="white"/>
<path d="M174.968 50.0001C174.457 50.0001 173.968 49.9458 173.523 49.8372C173.067 49.7286 172.709 49.5657 172.426 49.3376C172.144 49.1096 172.014 48.8272 172.014 48.4797C172.014 48.143 172.144 47.8498 172.415 47.6109C172.687 47.372 173.056 47.1873 173.512 47.057L173.599 47.2851C173.382 47.3502 173.219 47.4914 173.089 47.6869C172.958 47.8932 172.904 48.1213 172.904 48.3711C172.904 48.8164 173.111 49.153 173.523 49.3919C173.936 49.6309 174.468 49.7503 175.12 49.7503C175.554 49.7503 175.978 49.696 176.39 49.5874C176.803 49.4788 177.15 49.2942 177.422 49.0336C177.693 48.7729 177.824 48.4254 177.824 48.0018C177.824 47.6869 177.715 47.4154 177.487 47.2091C177.259 47.0027 176.814 46.8941 176.151 46.8941H175.076C174.772 46.8941 174.468 46.8724 174.175 46.8181C173.882 46.7747 173.654 46.6661 173.469 46.514C173.284 46.362 173.197 46.1231 173.197 45.8081C173.197 45.4823 173.328 45.1674 173.599 44.8633C173.871 44.5592 174.37 44.2443 175.087 43.9293L175.261 44.0596C174.935 44.2334 174.653 44.4072 174.403 44.5918C174.164 44.7655 174.045 44.9827 174.045 45.2217C174.045 45.5257 174.273 45.6886 174.74 45.6886H176.553C177.15 45.6886 177.683 45.819 178.139 46.0905C178.595 46.3511 178.823 46.7964 178.823 47.4045C178.823 47.8607 178.682 48.2842 178.389 48.6752C178.095 49.0661 177.672 49.3919 177.096 49.6417C176.531 49.8698 175.815 50.0001 174.968 50.0001ZM175.033 44.19C174.316 44.19 173.719 44.0053 173.23 43.6361C172.741 43.2668 172.502 42.6913 172.502 41.8985C172.502 41.0948 172.741 40.5192 173.23 40.15C173.719 39.7916 174.316 39.607 175.033 39.607C175.75 39.607 176.347 39.7916 176.836 40.15C177.324 40.5084 177.563 41.0948 177.563 41.8985C177.563 42.6913 177.324 43.2668 176.836 43.6361C176.358 44.0053 175.75 44.19 175.033 44.19ZM175.033 43.9293C175.402 43.9293 175.684 43.7881 175.891 43.4949C176.097 43.2017 176.206 42.6695 176.206 41.8985C176.206 41.1274 176.097 40.5953 175.891 40.302C175.684 40.0088 175.391 39.8676 175.033 39.8676C174.674 39.8676 174.392 40.0088 174.175 40.302C173.958 40.5953 173.86 41.1274 173.86 41.8985C173.86 42.6695 173.968 43.2017 174.175 43.4949C174.392 43.7773 174.685 43.9293 175.033 43.9293ZM177.118 40.8125L176.857 40.7147C176.988 40.3889 177.227 40.0957 177.552 39.8459C177.878 39.5961 178.226 39.4658 178.584 39.4658C178.834 39.4658 179.04 39.531 179.192 39.6722C179.344 39.8133 179.42 40.0197 179.42 40.302C179.42 40.6061 179.344 40.8125 179.181 40.9319C179.018 41.0514 178.856 41.1166 178.693 41.1166C178.551 41.1166 178.41 41.0623 178.291 40.9645C178.16 40.8668 178.095 40.7039 178.074 40.4758C178.052 40.2586 178.117 39.9654 178.28 39.6179L178.465 39.6613C178.063 39.8133 177.77 39.9762 177.596 40.15C177.422 40.3238 177.27 40.541 177.118 40.8125Z" fill="white"/>
<path d="M186.892 45.417C187.142 45.417 187.359 45.5039 187.543 45.6885C187.728 45.8731 187.815 46.0903 187.815 46.3401C187.815 46.5899 187.728 46.8071 187.543 46.9917C187.359 47.1763 187.142 47.2632 186.892 47.2632C186.642 47.2632 186.425 47.1763 186.24 46.9917C186.056 46.8071 185.969 46.5899 185.969 46.3401C185.969 46.0903 186.056 45.8731 186.24 45.6885C186.425 45.5147 186.642 45.417 186.892 45.417Z" fill="white"/>
</g>
</svg>
