<svg width="262" height="35" viewBox="0 0 262 35" fill="none" xmlns="http://www.w3.org/2000/svg">
<path d="M36.6187 0L21.4937 27.9437L5.74375 0L0 34.425H1.9625L5.91875 10.5188L19.8562 35L33.1875 10.5688L37.1687 34.425H42.3625L36.6187 0Z" fill="white"/>
<path d="M65.1561 0.574951H60.1436V34.425H65.1561V0.574951Z" fill="white"/>
<path d="M83.4561 0V34.425H85.8623V9L110.644 35V0.575H108.237V26L83.4561 0Z" fill="white"/>
<path d="M127.525 0.574951V2.9562H138.007V34.425H143.025V2.9562H153.507V0.574951H127.525Z" fill="white"/>
<path d="M193.85 0.574951V16.3062H175.425V0.574951H170.388V34.425H175.425V18.6875H193.85V34.425H198.888V0.574951H193.85Z" fill="white"/>
<path d="M222.187 0.574951H217.175V34.425H222.187V0.574951Z" fill="white"/>
<path d="M257.8 4.21255C255.669 2.80194 253.179 2.03191 250.625 1.9938C247.375 1.9938 244.525 3.43755 244.525 6.3688C244.525 9.30005 247.118 10.9313 251.281 13.7001C257.15 17.6376 261.281 20.5751 261.281 25.9376C261.281 32.7688 254.731 34.8376 249.537 34.8376C243.237 34.8376 239.537 31.7938 239.537 31.7938V28.9188C242.278 31.4183 245.829 32.8433 249.537 32.9313C253.768 32.9313 256.643 30.8876 256.643 27.35C256.643 24.1813 254.425 22.0876 249.712 18.7751C243.918 14.6626 240.337 12.1188 240.337 7.7063C240.337 2.30005 245.556 0.100054 250.643 0.100054C253.089 0.0886611 255.513 0.56238 257.775 1.4938L257.8 4.21255Z" fill="white"/>
</svg>
