<svg width="256" height="40" viewBox="0 0 256 40" fill="none" xmlns="http://www.w3.org/2000/svg">
<g opacity="0.9">
<path d="M180.28 39.7183H185.632L196.9 18.0284L207.886 39.7183H213.238L196.9 7.32422L180.28 39.7183Z" fill="white"/>
<path d="M162.813 23.6615L153.799 7.60535H148.165L160.559 29.0136V39.7178H165.348V29.0136L177.742 7.60535H172.108L162.813 23.6615Z" fill="white"/>
<path d="M218.307 12.394H228.166V39.7178H232.954V12.394H242.813V7.60535H218.307V12.394Z" fill="white"/>
<path d="M135.493 7.60535H130.704V39.7178H135.493V7.60535Z" fill="white"/>
<path d="M112.39 31.8305L91.8269 7.60535H87.6016V39.7178H92.3903V15.7743L112.672 39.7178H117.179V7.60535H112.39V31.8305Z" fill="white"/>
<path d="M58.5911 22.8165L48.4504 7.60535H43.9434V39.7178H48.732V16.6194L58.5911 31.2671L68.7319 16.6194V39.7178H73.5206V7.60535H69.0136L58.5911 22.8165Z" fill="white"/>
<path d="M16.6196 35.493C10.1408 35.493 5.07038 30.1409 5.07038 23.9438C5.07038 17.465 10.4224 12.3946 16.6196 12.3946C23.0984 12.3946 28.1688 17.7467 28.1688 23.9438C28.1688 30.1409 22.8167 35.493 16.6196 35.493ZM16.6196 7.32422C7.32388 7.32422 0 14.6481 0 23.6621C0 32.6761 7.32388 40 16.6196 40C25.6336 40 33.2392 32.6761 33.2392 23.6621C32.9575 14.6481 25.6336 7.32422 16.6196 7.32422Z" fill="white"/>
<path d="M254.642 1.97181C254.361 1.40844 253.797 0.845063 253.234 0.563376C252.671 0.281688 252.107 0 251.544 0C250.98 0 250.417 0.281688 249.572 0.563376C249.009 0.845063 248.445 1.40844 248.164 1.97181C247.882 2.53519 247.882 3.09857 247.882 3.66194C247.882 4.507 247.882 5.07038 248.164 5.63376C248.445 6.19713 249.009 6.76051 249.572 7.04219C250.135 7.32388 250.699 7.60557 251.544 7.60557C252.107 7.60557 252.952 7.32388 253.516 7.04219C254.079 6.76051 254.642 6.19713 254.924 5.63376C255.206 5.07038 255.487 4.507 255.487 3.66194C255.206 3.09857 255.206 2.53519 254.642 1.97181ZM254.079 5.35207C254.079 5.63376 253.516 6.19713 252.952 6.47882C252.389 6.76051 251.825 6.76051 251.262 6.76051C250.699 6.76051 250.135 6.47882 249.854 6.47882C249.29 6.19713 249.009 5.91544 248.727 5.35207C248.445 4.78869 248.445 4.22532 248.445 3.94363C248.445 3.38025 248.445 2.81688 248.727 2.2535C249.009 1.69013 249.29 1.40844 249.854 1.12675C250.417 0.845063 250.98 0.845063 251.262 0.845063C251.825 0.845063 252.389 0.845063 252.671 1.12675C253.234 1.40844 253.516 1.69013 253.797 2.2535C254.079 2.81688 254.361 3.38025 254.361 3.94363C254.642 4.22532 254.642 4.78869 254.079 5.35207Z" fill="white"/>
<path d="M252.106 4.22518L251.825 3.94349C252.106 3.94349 252.388 3.66181 252.67 3.66181C252.952 3.38012 252.952 3.09843 252.952 2.81674C252.952 2.53506 252.952 2.53506 252.67 2.25337C252.67 1.97168 252.388 1.97168 252.106 1.97168C251.825 1.97168 251.543 1.97168 250.98 1.97168H249.571V5.91531H250.135V3.94349H250.416C250.698 3.94349 250.698 3.94349 250.98 3.94349C251.261 3.94349 251.261 4.50687 251.543 4.78856L251.825 5.35193H252.67L252.106 4.50687C252.67 4.50687 252.388 4.50687 252.106 4.22518ZM251.261 3.66181H250.416V2.25337H251.261C251.543 2.25337 251.825 2.25337 251.825 2.25337C251.825 2.25337 252.106 2.25337 252.106 2.53506V2.81674C252.106 3.09843 252.106 3.09843 251.825 3.38012C251.825 3.38012 251.825 3.66181 251.261 3.66181Z" fill="white"/>
</g>
</svg>
