<svg width="195" height="60" viewBox="0 0 195 60" fill="none" xmlns="http://www.w3.org/2000/svg">
<g opacity="0.9">
<path d="M0.055866 0.912416L0.111732 1.80627L1.50838 1.99249C2.27188 2.0856 3.01676 2.2532 3.14712 2.32769C3.31471 2.43942 3.37058 5.0465 3.37058 14.283C3.37058 24.7672 3.33333 26.108 3.07263 26.3687C2.88641 26.5735 2.43948 26.6666 1.6946 26.6666C0.148976 26.6666 0.018622 26.7411 0.018622 27.7094V28.5288H4.95345H9.88827V27.6908C9.88827 26.7597 9.98138 26.8156 7.57915 26.5735C6.98324 26.5176 6.40596 26.4245 6.33147 26.3687C6.23836 26.3128 6.16388 23.7988 6.16388 20.7821V15.3072H8.6406H11.0987L14.8976 21.918L18.6778 28.5288H21.2663H23.8548V27.6908C23.8548 26.7597 23.8361 26.7411 21.9553 26.6107C21.3594 26.5735 20.838 26.499 20.8008 26.4618C20.7821 26.4245 19.1806 23.8361 17.2812 20.7076L13.8361 15.0279L15.0838 14.7485C18.4358 13.9478 20.4097 11.9739 20.9311 8.84538C21.5456 5.1396 19.4227 1.80627 15.6611 0.558598C14.5251 0.167538 14.0224 0.148914 7.22533 0.0744267L0 -6.10352e-05L0.055866 0.912416ZM14.6741 2.73737C15.8659 3.09119 17.2626 4.30162 17.7467 5.41893C18.0261 6.03346 18.1378 6.68523 18.1378 7.69081C18.1564 10.2048 17.0205 11.8435 14.6741 12.6443C13.8734 12.905 13.0354 12.9608 9.98138 12.9795H6.25699L6.20112 7.82117L6.16388 2.66288L6.57356 2.58839C6.81565 2.55115 8.51025 2.49529 10.3724 2.47666C12.8678 2.45804 13.9665 2.53253 14.6741 2.73737Z" fill="white"/>
<path d="M65.6427 0.223495C62.328 0.689045 59.2368 2.36502 57.3559 4.73001C56.3317 6.01493 55.0654 8.71512 54.7116 10.3725C53.7991 14.5252 54.3392 18.8269 56.1641 22.1416C57.1883 23.9665 59.4975 26.2012 61.2852 27.0764C63.5198 28.1751 64.7302 28.4358 67.7098 28.4358C70.6893 28.4358 71.8997 28.1751 74.1343 27.0764C76.1641 26.0894 78.436 23.7803 79.4975 21.6388C80.8383 18.8827 81.3969 15.5494 81.0245 12.4209C80.6707 9.40413 79.9072 7.39296 78.2871 5.12107C76.7973 2.99817 74.0599 1.19184 71.3411 0.54007C69.814 0.167629 67.1139 0.0186539 65.6427 0.223495ZM70.7451 2.75608C72.328 3.16577 73.5943 3.91065 74.8979 5.23281C76.3131 6.64808 77.1511 8.15646 77.6725 10.2049C78.9947 15.3445 77.6725 21.1174 74.5813 23.8362C71.5273 26.5363 66.4435 27.095 62.7005 25.1397C61.099 24.3017 59.4789 22.5885 58.6409 20.8939C57.598 18.7896 57.3001 17.3371 57.3001 14.2831C57.3001 11.3781 57.6353 9.73933 58.6781 7.67229C59.7582 5.53076 62.0487 3.55683 64.2647 2.84919C66.1083 2.27191 68.6967 2.23467 70.7451 2.75608Z" fill="white"/>
<path d="M113.985 0.968372C113.985 1.89947 113.985 1.89947 114.599 1.91809C116.108 1.95534 115.642 1.02424 121.266 15.3073L126.424 28.4358H127.691H128.938L134.078 15.2701L139.218 2.10431L140.298 1.97396L141.359 1.84361V0.949749V0.0372734H137.076H132.793V0.949749V1.84361L134.525 2.0112L136.238 2.1788V2.73746C136.22 3.31474 128.156 24.4321 127.951 24.4321C127.877 24.4321 125.735 18.9572 123.184 12.2719L118.547 0.130383L116.257 0.0745163L113.985 0.0186501V0.968372Z" fill="white"/>
<path d="M175.438 0.949659V1.86214L176.704 1.99249C177.393 2.04836 178.082 2.12284 178.231 2.14147C178.473 2.17871 178.511 3.68709 178.566 14.3016L178.604 26.4431L178.194 26.5549C177.952 26.6107 177.375 26.6666 176.891 26.6666C175.587 26.6666 175.438 26.7783 175.438 27.7094V28.5288H185.215H194.991V25.5493V22.5698H194.172C193.241 22.5698 193.129 22.7374 193.129 24.3761C193.129 24.8975 193.054 25.5493 192.943 25.81L192.756 26.2942H187.17H181.583V20.7076V15.121H186.239H190.894V14.0968V13.0726H186.239H181.583V7.7653V2.45804H186.779C190.485 2.45804 192.03 2.51391 192.123 2.66288C192.198 2.79324 192.31 3.55674 192.365 4.39473L192.477 5.90311L193.371 5.95897L194.265 6.01484L194.209 3.07257L194.153 0.130293L184.805 0.0744267L175.438 0.0371838V0.949659Z" fill="white"/>
<path d="M43.2217 51.4339V60H44.1528H45.0839V56.1825V52.365H46.7599H48.4358V56.1825V60H49.3669H50.298V51.4339V42.8678H49.3669H48.4358V46.6853V50.5028H46.7599H45.0839V46.6853V42.8678H44.1528H43.2217V51.4339Z" fill="white"/>
<path d="M66.3869 43.2215C65.9586 43.4078 65.3814 43.8919 65.0834 44.283L64.5434 44.972L64.4875 51.229L64.4316 57.486L64.9717 58.3426C66.3497 60.5027 69.7203 60.391 70.9121 58.1564C71.3404 57.337 71.3404 57.2439 71.3404 51.4525C71.3404 46.1452 71.3032 45.4934 70.9866 44.823C70.5769 43.9292 70.1672 43.5381 69.2361 43.1471C68.3423 42.7746 67.318 42.7932 66.3869 43.2215ZM69.0126 45.1955L69.4782 45.6424V51.3407V57.0577L68.9382 57.5977C68.6402 57.8957 68.2119 58.1377 67.9884 58.1377C67.4484 58.1377 66.5732 57.6536 66.4242 57.2998C66.3683 57.1322 66.3125 54.432 66.3125 51.3221V45.6424L66.778 45.1955C67.076 44.8789 67.4298 44.7299 67.8953 44.7299C68.3609 44.7299 68.7147 44.8789 69.0126 45.1955Z" fill="white"/>
<path d="M83.6309 43.7989V44.73H85.3999H87.169V52.365V60H88.1001H89.0312V52.365V44.73H90.8003H92.5694V43.7989V42.8678H88.1001H83.6309V43.7989Z" fill="white"/>
<path d="M105.829 51.3779L105.885 59.9067H109.143H112.402L112.458 59.0315L112.514 58.1563L110.13 58.1004L107.747 58.0445L107.691 55.214L107.635 52.3835L109.739 52.3276L111.844 52.2717L111.9 51.3965L111.955 50.5213L109.851 50.4654L107.747 50.4095L107.691 47.5604L107.635 44.7298H110.075H112.495V43.7987V42.8676H109.143H105.792L105.829 51.3779Z" fill="white"/>
<path d="M125.717 51.4339V60H129.162H132.607V59.0689V58.1378H130.093H127.579V50.5028V42.8678H126.648H125.717V51.4339Z" fill="white"/>
<path d="M146.797 43.2588C146.332 43.4823 145.773 43.9851 145.494 44.4134C145.028 45.1024 144.991 45.3445 144.935 47.4488C144.879 49.46 144.917 49.7952 145.252 50.4842C145.755 51.4711 146.76 52.1229 148.12 52.3277C149.796 52.5885 149.926 52.7933 149.926 55.1583C149.926 56.9832 149.889 57.1695 149.516 57.5233C148.883 58.1006 148.343 58.1937 147.71 57.8585C146.946 57.486 146.76 57.0577 146.76 55.8287V54.7858H145.829H144.898V55.9963C144.898 57.486 145.196 58.2309 146.071 59.013C147.505 60.2793 149.46 60.2235 150.838 58.8827C151.416 58.324 151.62 57.9516 151.788 57.0763C152.086 55.6983 151.937 53.1844 151.527 52.4022C151.062 51.527 149.87 50.7263 148.771 50.5773C148.194 50.5028 147.635 50.2793 147.3 50C146.779 49.5531 146.76 49.4972 146.76 47.6722C146.76 45.8659 146.779 45.8101 147.3 45.27C148.008 44.581 148.827 44.5438 149.46 45.1955C149.851 45.568 149.926 45.8287 149.926 46.7784V47.8957H150.969H152.03L151.9 46.5549C151.769 45.0279 151.434 44.3575 150.429 43.5568C149.479 42.7747 147.971 42.6629 146.797 43.2588Z" fill="white"/>
</g>
</svg>
