<svg width="120" height="267" viewBox="0 0 120 267" fill="none" xmlns="http://www.w3.org/2000/svg">
<path fill-rule="evenodd" clip-rule="evenodd" d="M18.4435 232.721H12.6904H5.75302H0V226.788V221.87L5.75302 219.566V226.788H12.6904V197.984H0V197.451V192.051V179.068V176.298V173.134H12.6904H18.4435V179.068V186.29H12.6904V179.068H5.75302V192.051H18.4435V196.109V197.984V226.788V232.721ZM107.274 192.078H113.919V198.011H107.274V226.788H114.099V219.566L119.852 221.87V232.721C114.151 232.721 107.222 232.721 101.521 232.721V225.406C101.521 207.904 101.521 190.403 101.521 172.902L107.274 175.206V192.078ZM88.7957 221.26V138.546L94.5487 140.85V221.26H88.7957ZM81.8589 226.788H94.5487V232.721H81.8589H76.1059V226.788V84.8124L81.8589 87.1171V226.788ZM63.5336 232.721V192.245L56.5368 173.45V232.721H50.7839V55.4659L56.5368 53.1616V156.897L63.5336 175.693V0L69.2865 2.30406V232.721H63.5336ZM38.0352 226.788V104.955L43.7882 102.651V226.788V232.721H38.0352H31.0978H25.3449V226.788V141.41L31.0978 139.106V226.788H38.0352Z" fill="white"/>
<path d="M10.6532 266.745H7.89913L4.93327 257.193H2.60279V266.745H0V244.521H4.87261C6.58773 244.521 7.86367 244.994 8.70091 245.941C9.5383 246.888 9.95717 248.526 9.95717 250.857C9.95717 252.418 9.75514 253.666 9.35189 254.603C8.94832 255.539 8.28252 256.226 7.35436 256.663L10.6532 266.745ZM6.82474 253.822C7.17788 253.156 7.35436 252.168 7.35436 250.857C7.35436 249.546 7.17788 248.563 6.82474 247.907C6.47159 247.252 5.83087 246.924 4.90271 246.924H2.60279V254.821H4.90271C5.83087 254.821 6.47159 254.488 6.82474 253.822ZM22.0934 266.745H13.7702V244.521H22.0934V246.924H16.3731V254.384H21.3064V256.788H16.3731V264.341H22.0934V266.745ZM36.0148 266.745H33.2609L32.2314 261.501H27.2378L26.2088 266.745H23.485L28.5092 244.521H31.0212L36.0148 266.745ZM31.7473 259.098L29.7501 248.86L27.7224 259.098H31.7473ZM46.426 266.745H38.103V244.521H40.7058V264.341H46.426V266.745ZM63.0111 266.745H54.6881V244.521H63.0111V246.924H57.2909V254.384H62.2241V256.788H57.2909V264.341H63.0111V266.745ZM75.6615 260.783C75.6615 263.093 75.2176 264.705 74.3298 265.621C73.4219 266.516 72.1509 266.963 70.5163 266.963C68.862 266.963 67.6008 266.516 66.7333 265.621C66.2492 265.122 65.9059 264.518 65.7043 263.811C65.5023 263.103 65.4016 262.146 65.4016 260.939H68.0044C68.0044 262.354 68.2464 263.322 68.731 263.842C69.1341 264.3 69.7295 264.528 70.5163 264.528C71.3234 264.528 71.9389 264.289 72.3627 263.811C72.8266 263.291 73.0587 262.302 73.0587 260.846C73.0587 259.555 72.9224 258.645 72.6502 258.114C72.3776 257.583 71.8075 257.131 70.9402 256.757L68.4885 255.727C67.379 255.248 66.6123 254.618 66.1884 253.838C65.7647 253.057 65.5527 251.835 65.5527 250.17C65.5527 248.152 66.0977 246.633 67.1873 245.613C68.075 244.76 69.2151 244.333 70.6072 244.333C72.1203 244.333 73.3108 244.76 74.1786 245.613C75.1267 246.57 75.6008 248.09 75.6008 250.17H72.998C72.998 248.943 72.7762 248.048 72.3323 247.486C71.9489 246.987 71.3639 246.737 70.5769 246.737C69.8706 246.737 69.316 246.966 68.9124 247.424C68.408 248.006 68.1555 248.891 68.1555 250.077C68.1555 251.18 68.2869 251.96 68.5492 252.418C68.8115 252.876 69.3662 253.292 70.2139 253.666L72.6349 254.696C73.8255 255.196 74.6273 255.882 75.0411 256.757C75.4546 257.63 75.6615 258.973 75.6615 260.783ZM87.283 246.924H83.6818V266.745H81.079V246.924H77.4472V244.521H87.283V246.924ZM99.5407 266.745H96.7867L95.7573 261.501H90.7637L89.7347 266.745H87.0109L92.0351 244.521H94.547L99.5407 266.745ZM95.2732 259.098L93.2759 248.86L91.2481 259.098H95.2732ZM109.104 246.924H105.503V266.745H102.9V246.924H99.2685V244.521H109.104V246.924ZM120 266.745H111.677V244.521H120V246.924H114.28V254.384H119.213V256.788H114.28V264.341H120V266.745Z" fill="white"/>
<mask id="mask0_2718_3521" style="mask-type:luminance" maskUnits="userSpaceOnUse" x="88" y="117" width="7" height="17">
<path d="M88.9871 117.191L94.7401 119.496C94.7401 125.052 94.7397 128.304 94.7397 133.86L88.9868 131.556C88.9868 125.999 88.9871 122.747 88.9871 117.191Z" fill="white"/>
</mask>
<g mask="url(#mask0_2718_3521)">
<path fill-rule="evenodd" clip-rule="evenodd" d="M86.0771 132.052L86.227 131.288L94.8937 133.096L94.744 133.859L86.0771 132.052Z" fill="#E7B656"/>
<path fill-rule="evenodd" clip-rule="evenodd" d="M86.2261 131.309L86.2398 131.239L94.9065 133.047L94.8928 133.117L86.2261 131.309Z" fill="#E7B656"/>
<path fill-rule="evenodd" clip-rule="evenodd" d="M86.2339 131.263L86.2475 131.193L94.9143 133.001L94.9006 133.071L86.2339 131.263Z" fill="#E7B656"/>
<path fill-rule="evenodd" clip-rule="evenodd" d="M86.2441 131.218L86.2577 131.148L94.9246 132.956L94.9109 133.026L86.2441 131.218Z" fill="#E7B656"/>
<path fill-rule="evenodd" clip-rule="evenodd" d="M86.2485 131.17L86.2622 131.1L94.9291 132.908L94.9154 132.978L86.2485 131.17Z" fill="#E7B656"/>
<path fill-rule="evenodd" clip-rule="evenodd" d="M86.252 131.125L86.2656 131.055L94.9325 132.863L94.9188 132.932L86.252 131.125Z" fill="#E8B656"/>
<path fill-rule="evenodd" clip-rule="evenodd" d="M86.2646 131.077L86.2783 131.007L94.9451 132.815L94.9315 132.885L86.2646 131.077Z" fill="#E8B656"/>
<path fill-rule="evenodd" clip-rule="evenodd" d="M86.2744 131.033L86.2881 130.963L94.9548 132.771L94.9413 132.841L86.2744 131.033Z" fill="#E8B656"/>
<path fill-rule="evenodd" clip-rule="evenodd" d="M86.29 130.985L86.3037 130.915L94.9705 132.723L94.9568 132.793L86.29 130.985Z" fill="#E8B656"/>
<path fill-rule="evenodd" clip-rule="evenodd" d="M86.2954 130.936L86.3091 130.866L94.9758 132.674L94.9621 132.744L86.2954 130.936Z" fill="#E8B656"/>
<path fill-rule="evenodd" clip-rule="evenodd" d="M86.3071 130.891L86.3207 130.822L94.9876 132.629L94.9739 132.699L86.3071 130.891Z" fill="#E8B656"/>
<path fill-rule="evenodd" clip-rule="evenodd" d="M86.3125 130.844L86.326 130.774L94.9929 132.582L94.9792 132.652L86.3125 130.844Z" fill="#E8B656"/>
<path fill-rule="evenodd" clip-rule="evenodd" d="M86.3179 130.8L86.3316 130.73L94.9985 132.538L94.9847 132.608L86.3179 130.8Z" fill="#E8B757"/>
<path fill-rule="evenodd" clip-rule="evenodd" d="M86.3423 130.751L86.356 130.682L95.0229 132.49L95.0091 132.559L86.3423 130.751Z" fill="#E8B757"/>
<path fill-rule="evenodd" clip-rule="evenodd" d="M86.3447 130.706L86.3584 130.636L95.0253 132.444L95.0116 132.514L86.3447 130.706Z" fill="#E8B757"/>
<path fill-rule="evenodd" clip-rule="evenodd" d="M86.3511 130.658L86.3648 130.588L95.0315 132.396L95.018 132.465L86.3511 130.658Z" fill="#E8B757"/>
<path fill-rule="evenodd" clip-rule="evenodd" d="M86.3613 130.613L86.3751 130.543L95.0418 132.351L95.0281 132.42L86.3613 130.613Z" fill="#E8B858"/>
<path fill-rule="evenodd" clip-rule="evenodd" d="M86.3657 130.566L86.3794 130.496L95.0462 132.304L95.0325 132.374L86.3657 130.566Z" fill="#E8B858"/>
<path fill-rule="evenodd" clip-rule="evenodd" d="M86.3745 130.521L86.3881 130.451L95.055 132.259L95.0412 132.328L86.3745 130.521Z" fill="#E8B858"/>
<path fill-rule="evenodd" clip-rule="evenodd" d="M86.3818 130.471L86.3954 130.401L95.0623 132.209L95.0486 132.279L86.3818 130.471Z" fill="#E8B858"/>
<path fill-rule="evenodd" clip-rule="evenodd" d="M86.3999 130.429L86.4136 130.359L95.0805 132.167L95.0668 132.236L86.3999 130.429Z" fill="#E8B859"/>
<path fill-rule="evenodd" clip-rule="evenodd" d="M86.4087 130.38L86.4224 130.31L95.0893 132.118L95.0756 132.188L86.4087 130.38Z" fill="#E8B959"/>
<path fill-rule="evenodd" clip-rule="evenodd" d="M86.4126 130.332L86.4263 130.263L95.0932 132.07L95.0795 132.14L86.4126 130.332Z" fill="#E8B959"/>
<path fill-rule="evenodd" clip-rule="evenodd" d="M86.4243 130.288L86.438 130.218L95.1047 132.026L95.0912 132.095L86.4243 130.288Z" fill="#E8BA5A"/>
<path fill-rule="evenodd" clip-rule="evenodd" d="M86.4297 130.24L86.4434 130.17L95.1101 131.978L95.0964 132.048L86.4297 130.24Z" fill="#E8BA5A"/>
<path fill-rule="evenodd" clip-rule="evenodd" d="M86.4395 130.191L86.4531 130.122L95.1199 131.929L95.1062 131.999L86.4395 130.191Z" fill="#E8BA5A"/>
<path fill-rule="evenodd" clip-rule="evenodd" d="M86.4585 130.148L86.4722 130.079L95.1389 131.886L95.1252 131.956L86.4585 130.148Z" fill="#E8BA5B"/>
<path fill-rule="evenodd" clip-rule="evenodd" d="M86.4629 130.101L86.4764 130.031L95.1433 131.839L95.1296 131.909L86.4629 130.101Z" fill="#E9BB5C"/>
<path fill-rule="evenodd" clip-rule="evenodd" d="M86.4683 130.056L86.482 129.986L95.1488 131.794L95.1351 131.863L86.4683 130.056Z" fill="#E9BB5C"/>
<path fill-rule="evenodd" clip-rule="evenodd" d="M86.4785 130.008L86.4922 129.938L95.1591 131.746L95.1454 131.816L86.4785 130.008Z" fill="#E9BB5C"/>
<path fill-rule="evenodd" clip-rule="evenodd" d="M86.4839 129.96L86.4976 129.89L95.1645 131.698L95.1508 131.768L86.4839 129.96Z" fill="#E9BC5D"/>
<path fill-rule="evenodd" clip-rule="evenodd" d="M86.4917 129.913L86.5054 129.843L95.1721 131.651L95.1586 131.721L86.4917 129.913Z" fill="#EABD5D"/>
<path fill-rule="evenodd" clip-rule="evenodd" d="M86.5024 129.867L86.5161 129.797L95.1829 131.605L95.1691 131.675L86.5024 129.867Z" fill="#E9BD5E"/>
<path fill-rule="evenodd" clip-rule="evenodd" d="M86.5171 129.823L86.5308 129.753L95.1975 131.561L95.1838 131.631L86.5171 129.823Z" fill="#EABE5F"/>
<path fill-rule="evenodd" clip-rule="evenodd" d="M86.5244 129.775L86.5381 129.706L95.2049 131.513L95.1911 131.583L86.5244 129.775Z" fill="#E9BE5F"/>
<path fill-rule="evenodd" clip-rule="evenodd" d="M86.5317 129.731L86.5453 129.662L95.2122 131.469L95.1985 131.539L86.5317 129.731Z" fill="#EABE60"/>
<path fill-rule="evenodd" clip-rule="evenodd" d="M86.5439 129.68L86.5577 129.61L95.2246 131.418L95.2108 131.488L86.5439 129.68Z" fill="#E9BF60"/>
<path fill-rule="evenodd" clip-rule="evenodd" d="M86.5469 129.637L86.5606 129.567L95.2275 131.375L95.2138 131.445L86.5469 129.637Z" fill="#EABF61"/>
<path fill-rule="evenodd" clip-rule="evenodd" d="M86.5522 129.589L86.566 129.519L95.2329 131.327L95.2191 131.397L86.5522 129.589Z" fill="#EAC061"/>
<path fill-rule="evenodd" clip-rule="evenodd" d="M86.5767 129.541L86.5904 129.471L95.2571 131.279L95.2435 131.349L86.5767 129.541Z" fill="#EAC062"/>
<path fill-rule="evenodd" clip-rule="evenodd" d="M86.5801 129.497L86.5938 129.427L95.2605 131.235L95.2468 131.305L86.5801 129.497Z" fill="#EBC163"/>
<path fill-rule="evenodd" clip-rule="evenodd" d="M86.5854 129.452L86.5992 129.382L95.2659 131.19L95.2522 131.259L86.5854 129.452Z" fill="#EAC164"/>
<path fill-rule="evenodd" clip-rule="evenodd" d="M86.5957 129.402L86.6094 129.333L95.2761 131.14L95.2624 131.21L86.5957 129.402Z" fill="#EBC265"/>
<path fill-rule="evenodd" clip-rule="evenodd" d="M86.6011 129.355L86.6146 129.285L95.2815 131.093L95.2678 131.163L86.6011 129.355Z" fill="#EBC265"/>
<path fill-rule="evenodd" clip-rule="evenodd" d="M86.6089 129.311L86.6226 129.241L95.2895 131.049L95.2758 131.119L86.6089 129.311Z" fill="#EAC266"/>
<path fill-rule="evenodd" clip-rule="evenodd" d="M86.6196 129.264L86.6333 129.194L95.3002 131.002L95.2865 131.071L86.6196 129.264Z" fill="#EBC367"/>
<path fill-rule="evenodd" clip-rule="evenodd" d="M86.6343 129.217L86.648 129.147L95.3149 130.955L95.3012 131.024L86.6343 129.217Z" fill="#EBC468"/>
<path fill-rule="evenodd" clip-rule="evenodd" d="M86.6431 129.171L86.6568 129.101L95.3235 130.909L95.3099 130.979L86.6431 129.171Z" fill="#ECC469"/>
<path fill-rule="evenodd" clip-rule="evenodd" d="M86.6523 129.123L86.666 129.053L95.3328 130.861L95.319 130.93L86.6523 129.123Z" fill="#ECC56A"/>
<path fill-rule="evenodd" clip-rule="evenodd" d="M86.6611 129.079L86.6748 129.01L95.3416 130.818L95.3278 130.887L86.6611 129.079Z" fill="#ECC56A"/>
<path fill-rule="evenodd" clip-rule="evenodd" d="M86.6641 129.03L86.6778 128.96L95.3445 130.768L95.3308 130.838L86.6641 129.03Z" fill="#ECC66B"/>
<path fill-rule="evenodd" clip-rule="evenodd" d="M86.6738 128.984L86.6874 128.914L95.3543 130.722L95.3405 130.792L86.6738 128.984Z" fill="#ECC66C"/>
<path fill-rule="evenodd" clip-rule="evenodd" d="M86.6929 128.939L86.7066 128.869L95.3735 130.677L95.3598 130.747L86.6929 128.939Z" fill="#ECC66C"/>
<path fill-rule="evenodd" clip-rule="evenodd" d="M86.6982 128.891L86.712 128.821L95.3789 130.629L95.3651 130.699L86.6982 128.891Z" fill="#EDC76D"/>
<path fill-rule="evenodd" clip-rule="evenodd" d="M86.71 128.844L86.7237 128.774L95.3906 130.582L95.3768 130.652L86.71 128.844Z" fill="#ECC76E"/>
<path fill-rule="evenodd" clip-rule="evenodd" d="M86.7163 128.798L86.73 128.729L95.3967 130.536L95.3832 130.606L86.7163 128.798Z" fill="#ECC76F"/>
<path fill-rule="evenodd" clip-rule="evenodd" d="M86.7207 128.753L86.7344 128.684L95.4011 130.491L95.3876 130.561L86.7207 128.753Z" fill="#EDC870"/>
<path fill-rule="evenodd" clip-rule="evenodd" d="M86.7261 128.706L86.7398 128.637L95.4065 130.444L95.3928 130.514L86.7261 128.706Z" fill="#EDC871"/>
<path fill-rule="evenodd" clip-rule="evenodd" d="M86.7432 128.661L86.7569 128.591L95.4236 130.399L95.4099 130.469L86.7432 128.661Z" fill="#EDC972"/>
<path fill-rule="evenodd" clip-rule="evenodd" d="M86.7515 128.61L86.765 128.541L95.4319 130.348L95.4182 130.418L86.7515 128.61Z" fill="#EEC973"/>
<path fill-rule="evenodd" clip-rule="evenodd" d="M86.7642 128.567L86.7779 128.497L95.4447 130.305L95.431 130.375L86.7642 128.567Z" fill="#EECA74"/>
<path fill-rule="evenodd" clip-rule="evenodd" d="M86.7695 128.519L86.7832 128.449L95.4501 130.257L95.4364 130.327L86.7695 128.519Z" fill="#EECA75"/>
<path fill-rule="evenodd" clip-rule="evenodd" d="M86.7783 128.472L86.792 128.402L95.4589 130.21L95.4452 130.28L86.7783 128.472Z" fill="#EECB76"/>
<path fill-rule="evenodd" clip-rule="evenodd" d="M86.7812 128.427L86.7949 128.357L95.4617 130.165L95.4481 130.235L86.7812 128.427Z" fill="#EFCB77"/>
<path fill-rule="evenodd" clip-rule="evenodd" d="M86.7964 128.382L86.8101 128.312L95.4768 130.12L95.4633 130.19L86.7964 128.382Z" fill="#EFCC79"/>
<path fill-rule="evenodd" clip-rule="evenodd" d="M86.811 128.333L86.8247 128.264L95.4915 130.071L95.4778 130.141L86.811 128.333Z" fill="#EFCC7A"/>
<path fill-rule="evenodd" clip-rule="evenodd" d="M86.8198 128.286L86.8335 128.216L95.5002 130.024L95.4865 130.094L86.8198 128.286Z" fill="#EFCD7B"/>
<path fill-rule="evenodd" clip-rule="evenodd" d="M86.8271 128.242L86.8407 128.172L95.5076 129.98L95.4938 130.05L86.8271 128.242Z" fill="#EFCE7C"/>
<path fill-rule="evenodd" clip-rule="evenodd" d="M86.8335 128.193L86.847 128.124L95.5139 129.931L95.5002 130.001L86.8335 128.193Z" fill="#F0CF7E"/>
<path fill-rule="evenodd" clip-rule="evenodd" d="M86.8413 128.145L86.855 128.075L95.5219 129.883L95.5082 129.953L86.8413 128.145Z" fill="#F0CF7F"/>
<path fill-rule="evenodd" clip-rule="evenodd" d="M86.8467 128.1L86.8604 128.031L95.5273 129.838L95.5136 129.908L86.8467 128.1Z" fill="#F0CF81"/>
<path fill-rule="evenodd" clip-rule="evenodd" d="M86.8604 128.053L86.8741 127.983L95.5408 129.791L95.5272 129.861L86.8604 128.053Z" fill="#F1D082"/>
<path fill-rule="evenodd" clip-rule="evenodd" d="M86.8687 128.011L86.8824 127.941L95.5491 129.749L95.5355 129.818L86.8687 128.011Z" fill="#F1D184"/>
<path fill-rule="evenodd" clip-rule="evenodd" d="M86.8813 127.961L86.8951 127.891L95.5618 129.698L95.5481 129.768L86.8813 127.961Z" fill="#F1D185"/>
<path fill-rule="evenodd" clip-rule="evenodd" d="M86.8867 127.915L86.9004 127.845L95.5671 129.653L95.5534 129.723L86.8867 127.915Z" fill="#F1D286"/>
<path fill-rule="evenodd" clip-rule="evenodd" d="M86.8975 127.867L86.911 127.797L95.5779 129.605L95.5642 129.675L86.8975 127.867Z" fill="#F1D387"/>
<path fill-rule="evenodd" clip-rule="evenodd" d="M86.9019 127.822L86.9154 127.752L95.5823 129.56L95.5686 129.63L86.9019 127.822Z" fill="#F2D389"/>
<path fill-rule="evenodd" clip-rule="evenodd" d="M86.9146 127.775L86.9282 127.705L95.5951 129.513L95.5814 129.583L86.9146 127.775Z" fill="#F2D48A"/>
<path fill-rule="evenodd" clip-rule="evenodd" d="M86.9272 127.729L86.9409 127.66L95.6078 129.467L95.5941 129.537L86.9272 127.729Z" fill="#F2D48C"/>
<path fill-rule="evenodd" clip-rule="evenodd" d="M86.937 127.685L86.9507 127.615L95.6174 129.423L95.6039 129.492L86.937 127.685Z" fill="#F3D58E"/>
<path fill-rule="evenodd" clip-rule="evenodd" d="M86.9443 127.637L86.958 127.567L95.6248 129.375L95.6112 129.445L86.9443 127.637Z" fill="#F4D68F"/>
<path fill-rule="evenodd" clip-rule="evenodd" d="M86.9507 127.589L86.9644 127.519L95.6311 129.327L95.6174 129.397L86.9507 127.589Z" fill="#F4D791"/>
<path fill-rule="evenodd" clip-rule="evenodd" d="M86.9551 127.541L86.9688 127.472L95.6355 129.279L95.6218 129.349L86.9551 127.541Z" fill="#F5D892"/>
<path fill-rule="evenodd" clip-rule="evenodd" d="M86.9678 127.497L86.9813 127.428L95.6482 129.235L95.6345 129.305L86.9678 127.497Z" fill="#F5D894"/>
<path fill-rule="evenodd" clip-rule="evenodd" d="M86.9775 127.449L86.9911 127.379L95.658 129.187L95.6443 129.256L86.9775 127.449Z" fill="#F5D895"/>
<path fill-rule="evenodd" clip-rule="evenodd" d="M86.9932 127.403L87.0069 127.333L95.6737 129.141L95.66 129.211L86.9932 127.403Z" fill="#F5DA96"/>
<path fill-rule="evenodd" clip-rule="evenodd" d="M86.9985 127.358L87.0122 127.288L95.6791 129.096L95.6654 129.166L86.9985 127.358Z" fill="#F6DA98"/>
<path fill-rule="evenodd" clip-rule="evenodd" d="M87.0049 127.31L87.0186 127.24L95.6855 129.048L95.6717 129.118L87.0049 127.31Z" fill="#F5DA9A"/>
<path fill-rule="evenodd" clip-rule="evenodd" d="M87.0146 127.265L87.0284 127.195L95.6951 129.003L95.6815 129.072L87.0146 127.265Z" fill="#F6DB9B"/>
<path fill-rule="evenodd" clip-rule="evenodd" d="M87.021 127.217L87.0347 127.147L95.7015 128.955L95.6877 129.024L87.021 127.217Z" fill="#F6DC9D"/>
<path fill-rule="evenodd" clip-rule="evenodd" d="M87.0317 127.173L87.0455 127.103L95.7122 128.911L95.6985 128.98L87.0317 127.173Z" fill="#F6DC9E"/>
<path fill-rule="evenodd" clip-rule="evenodd" d="M87.0464 127.122L87.06 127.052L95.7268 128.86L95.7131 128.93L87.0464 127.122Z" fill="#F7DD9F"/>
<path fill-rule="evenodd" clip-rule="evenodd" d="M87.0542 127.076L87.0678 127.006L95.7347 128.814L95.7209 128.884L87.0542 127.076Z" fill="#F7DEA1"/>
<path fill-rule="evenodd" clip-rule="evenodd" d="M87.0645 127.032L87.0782 126.962L95.745 128.77L95.7313 128.84L87.0645 127.032Z" fill="#F7DEA3"/>
<path fill-rule="evenodd" clip-rule="evenodd" d="M87.0698 126.984L87.0836 126.915L95.7504 128.722L95.7367 128.792L87.0698 126.984Z" fill="#F8DFA4"/>
<path fill-rule="evenodd" clip-rule="evenodd" d="M87.0776 126.941L87.0914 126.871L95.7582 128.679L95.7445 128.749L87.0776 126.941Z" fill="#F8E0A6"/>
<path fill-rule="evenodd" clip-rule="evenodd" d="M87.085 126.891L87.0987 126.822L95.7654 128.63L95.7518 128.699L87.085 126.891Z" fill="#F8E0A7"/>
<path fill-rule="evenodd" clip-rule="evenodd" d="M87.103 126.846L87.1167 126.776L95.7835 128.584L95.7698 128.654L87.103 126.846Z" fill="#F9E1A8"/>
<path fill-rule="evenodd" clip-rule="evenodd" d="M87.1118 126.798L87.1255 126.728L95.7922 128.536L95.7785 128.606L87.1118 126.798Z" fill="#F9E2AA"/>
<path fill-rule="evenodd" clip-rule="evenodd" d="M87.1177 126.753L87.1312 126.683L95.7981 128.491L95.7844 128.561L87.1177 126.753Z" fill="#F9E3AB"/>
<path fill-rule="evenodd" clip-rule="evenodd" d="M87.1299 126.706L87.1434 126.636L95.8103 128.444L95.7966 128.514L87.1299 126.706Z" fill="#FAE4AD"/>
<path fill-rule="evenodd" clip-rule="evenodd" d="M87.1328 126.66L87.1465 126.59L95.8134 128.398L95.7997 128.468L87.1328 126.66Z" fill="#FAE4AE"/>
<path fill-rule="evenodd" clip-rule="evenodd" d="M87.1426 126.611L87.1563 126.542L95.8232 128.349L95.8095 128.419L87.1426 126.611Z" fill="#FAE5B0"/>
<path fill-rule="evenodd" clip-rule="evenodd" d="M87.1616 126.568L87.1753 126.499L95.8422 128.306L95.8285 128.376L87.1616 126.568Z" fill="#FBE5B1"/>
<path fill-rule="evenodd" clip-rule="evenodd" d="M87.165 126.52L87.1787 126.45L95.8455 128.258L95.8319 128.327L87.165 126.52Z" fill="#FBE6B3"/>
<path fill-rule="evenodd" clip-rule="evenodd" d="M87.1714 126.473L87.1851 126.403L95.8518 128.211L95.8381 128.28L87.1714 126.473Z" fill="#FBE6B4"/>
<path fill-rule="evenodd" clip-rule="evenodd" d="M87.1816 126.429L87.1953 126.359L95.8621 128.167L95.8483 128.236L87.1816 126.429Z" fill="#FCE7B5"/>
<path fill-rule="evenodd" clip-rule="evenodd" d="M87.187 126.38L87.2007 126.31L95.8675 128.118L95.8537 128.188L87.187 126.38Z" fill="#FCE8B6"/>
<path fill-rule="evenodd" clip-rule="evenodd" d="M87.1948 126.332L87.2084 126.262L95.8753 128.07L95.8616 128.14L87.1948 126.332Z" fill="#FCE8B7"/>
<path fill-rule="evenodd" clip-rule="evenodd" d="M87.2021 126.289L87.2159 126.219L95.8828 128.027L95.869 128.096L87.2021 126.289Z" fill="#FCE8B8"/>
<path fill-rule="evenodd" clip-rule="evenodd" d="M87.2202 126.241L87.2339 126.171L95.9008 127.979L95.8871 128.049L87.2202 126.241Z" fill="#FDE9BA"/>
<path fill-rule="evenodd" clip-rule="evenodd" d="M87.2275 126.193L87.2413 126.123L95.9081 127.931L95.8944 128.001L87.2275 126.193Z" fill="#FDEABB"/>
<path fill-rule="evenodd" clip-rule="evenodd" d="M87.2349 126.148L87.2486 126.078L95.9153 127.886L95.9017 127.956L87.2349 126.148Z" fill="#FDEABC"/>
<path fill-rule="evenodd" clip-rule="evenodd" d="M87.2446 126.1L87.2584 126.03L95.9251 127.838L95.9114 127.908L87.2446 126.1Z" fill="#FDEABC"/>
<path fill-rule="evenodd" clip-rule="evenodd" d="M87.25 126.053L87.2637 125.983L95.9304 127.791L95.9167 127.861L87.25 126.053Z" fill="#FEEBBD"/>
<path fill-rule="evenodd" clip-rule="evenodd" d="M87.2554 126.007L87.2691 125.937L95.9358 127.745L95.9221 127.814L87.2554 126.007Z" fill="#FEEBBE"/>
<path fill-rule="evenodd" clip-rule="evenodd" d="M87.2798 125.962L87.2933 125.893L95.9602 127.7L95.9465 127.77L87.2798 125.962Z" fill="#FEECBF"/>
<path fill-rule="evenodd" clip-rule="evenodd" d="M87.2822 125.915L87.2959 125.846L95.9628 127.654L95.9491 127.723L87.2822 125.915Z" fill="#FEECC0"/>
<path fill-rule="evenodd" clip-rule="evenodd" d="M87.2886 125.871L87.3023 125.802L95.9692 127.61L95.9555 127.679L87.2886 125.871Z" fill="#FEECC1"/>
<path fill-rule="evenodd" clip-rule="evenodd" d="M87.2988 125.82L87.3125 125.75L95.9794 127.558L95.9657 127.628L87.2988 125.82Z" fill="#FEEDC2"/>
<path fill-rule="evenodd" clip-rule="evenodd" d="M87.3042 125.777L87.3179 125.707L95.9846 127.515L95.9711 127.584L87.3042 125.777Z" fill="#FEEDC3"/>
<path fill-rule="evenodd" clip-rule="evenodd" d="M87.312 125.729L87.3257 125.659L95.9924 127.467L95.9787 127.537L87.312 125.729Z" fill="#FEEDC3"/>
<path fill-rule="evenodd" clip-rule="evenodd" d="M87.3228 125.681L87.3365 125.611L96.0032 127.419L95.9895 127.489L87.3228 125.681Z" fill="#FFEEC4"/>
<path fill-rule="evenodd" clip-rule="evenodd" d="M87.3374 125.637L87.3511 125.567L96.0178 127.375L96.0041 127.445L87.3374 125.637Z" fill="#FEEEC4"/>
<path fill-rule="evenodd" clip-rule="evenodd" d="M87.3462 125.591L87.3597 125.521L96.0266 127.329L96.0129 127.399L87.3462 125.591Z" fill="#FEEEC5"/>
<path fill-rule="evenodd" clip-rule="evenodd" d="M87.3545 125.542L87.3682 125.473L96.0351 127.28L96.0214 127.35L87.3545 125.542Z" fill="#FFEEC5"/>
<path fill-rule="evenodd" clip-rule="evenodd" d="M87.3643 125.495L87.378 125.425L96.0449 127.233L96.0311 127.302L87.3643 125.495Z" fill="#FFEEC6"/>
<path fill-rule="evenodd" clip-rule="evenodd" d="M87.3672 125.451L87.3809 125.381L96.0478 127.189L96.0341 127.258L87.3672 125.451Z" fill="#FFEFC6"/>
<path fill-rule="evenodd" clip-rule="evenodd" d="M87.377 125.403L87.3907 125.333L96.0574 127.141L96.0438 127.211L87.377 125.403Z" fill="#FFEFC6"/>
<path fill-rule="evenodd" clip-rule="evenodd" d="M87.396 125.357L87.4097 125.287L96.0764 127.095L96.0629 127.165L87.396 125.357Z" fill="#FFEFC7"/>
<path fill-rule="evenodd" clip-rule="evenodd" d="M87.4004 125.311L87.4141 125.241L96.0808 127.049L96.0671 127.119L87.4004 125.311Z" fill="#FFEFC7"/>
<path fill-rule="evenodd" clip-rule="evenodd" d="M87.4131 125.263L87.4268 125.193L96.0935 127.001L96.0798 127.07L87.4131 125.263Z" fill="#FFEFC7"/>
<path fill-rule="evenodd" clip-rule="evenodd" d="M87.416 125.219L87.4296 125.149L96.0964 126.957L96.0827 127.027L87.416 125.219Z" fill="#FFEFC7"/>
<path fill-rule="evenodd" clip-rule="evenodd" d="M87.4214 125.17L87.4351 125.1L96.102 126.908L96.0883 126.978L87.4214 125.17Z" fill="#FFEFC7"/>
<path fill-rule="evenodd" clip-rule="evenodd" d="M87.4292 125.124L87.4429 125.054L96.1098 126.862L96.0961 126.932L87.4292 125.124Z" fill="#FFEFC7"/>
<path fill-rule="evenodd" clip-rule="evenodd" d="M87.4399 125.076L87.4536 125.006L96.1205 126.814L96.1068 126.884L87.4399 125.076Z" fill="#FFEFC7"/>
<path fill-rule="evenodd" clip-rule="evenodd" d="M87.4546 125.031L87.4683 124.961L96.135 126.769L96.1215 126.839L87.4546 125.031Z" fill="#FFEFC6"/>
<path fill-rule="evenodd" clip-rule="evenodd" d="M87.4619 124.984L87.4756 124.914L96.1423 126.722L96.1288 126.792L87.4619 124.984Z" fill="#FFEFC6"/>
<path fill-rule="evenodd" clip-rule="evenodd" d="M87.4727 124.938L87.4864 124.868L96.1531 126.676L96.1394 126.746L87.4727 124.938Z" fill="#FFEFC6"/>
<path fill-rule="evenodd" clip-rule="evenodd" d="M87.4814 124.893L87.4951 124.823L96.1619 126.631L96.1481 126.701L87.4814 124.893Z" fill="#FFEEC4"/>
<path fill-rule="evenodd" clip-rule="evenodd" d="M87.4844 124.846L87.4979 124.776L96.1648 126.584L96.1511 126.654L87.4844 124.846Z" fill="#FFEEC4"/>
<path fill-rule="evenodd" clip-rule="evenodd" d="M87.4897 124.803L87.5034 124.733L96.1703 126.541L96.1566 126.611L87.4897 124.803Z" fill="#FFEEC3"/>
<path fill-rule="evenodd" clip-rule="evenodd" d="M87.5142 124.75L87.5279 124.681L96.1948 126.489L96.181 126.558L87.5142 124.75Z" fill="#FFEEC2"/>
<path fill-rule="evenodd" clip-rule="evenodd" d="M87.5229 124.706L87.5367 124.637L96.2036 126.444L96.1898 126.514L87.5229 124.706Z" fill="#FFEDC1"/>
<path fill-rule="evenodd" clip-rule="evenodd" d="M87.5303 124.659L87.544 124.589L96.2107 126.397L96.1972 126.467L87.5303 124.659Z" fill="#FFEDC0"/>
<path fill-rule="evenodd" clip-rule="evenodd" d="M87.5366 124.612L87.5503 124.542L96.2171 126.35L96.2035 126.419L87.5366 124.612Z" fill="#FFEDBF"/>
<path fill-rule="evenodd" clip-rule="evenodd" d="M87.5444 124.567L87.5582 124.497L96.2249 126.305L96.2112 126.375L87.5444 124.567Z" fill="#FFECBE"/>
<path fill-rule="evenodd" clip-rule="evenodd" d="M87.5498 124.519L87.5635 124.449L96.2302 126.257L96.2165 126.327L87.5498 124.519Z" fill="#FFECBC"/>
<path fill-rule="evenodd" clip-rule="evenodd" d="M87.5635 124.473L87.577 124.403L96.2439 126.211L96.2302 126.281L87.5635 124.473Z" fill="#FFECBC"/>
<path fill-rule="evenodd" clip-rule="evenodd" d="M87.5718 124.426L87.5854 124.356L96.2522 126.164L96.2385 126.234L87.5718 124.426Z" fill="#FFEBBA"/>
<path fill-rule="evenodd" clip-rule="evenodd" d="M87.5815 124.382L87.5952 124.312L96.2621 126.12L96.2484 126.19L87.5815 124.382Z" fill="#FFEBB8"/>
<path fill-rule="evenodd" clip-rule="evenodd" d="M87.5898 124.334L87.6035 124.265L96.2704 126.072L96.2567 126.142L87.5898 124.334Z" fill="#FFEAB6"/>
<path fill-rule="evenodd" clip-rule="evenodd" d="M87.5996 124.288L87.6133 124.218L96.28 126.026L96.2665 126.096L87.5996 124.288Z" fill="#FFEAB5"/>
<path fill-rule="evenodd" clip-rule="evenodd" d="M87.605 124.241L87.6187 124.171L96.2854 125.979L96.2719 126.049L87.605 124.241Z" fill="#FFE9B3"/>
<path fill-rule="evenodd" clip-rule="evenodd" d="M87.6177 124.193L87.6314 124.124L96.2981 125.931L96.2844 126.001L87.6177 124.193Z" fill="#FFE9B1"/>
<path fill-rule="evenodd" clip-rule="evenodd" d="M87.6323 124.15L87.646 124.08L96.3127 125.888L96.2991 125.958L87.6323 124.15Z" fill="#FFE8AF"/>
<path fill-rule="evenodd" clip-rule="evenodd" d="M87.6401 124.1L87.6537 124.03L96.3206 125.838L96.3069 125.908L87.6401 124.1Z" fill="#FFE8AE"/>
<path fill-rule="evenodd" clip-rule="evenodd" d="M87.6475 124.055L87.661 123.985L96.3279 125.793L96.3142 125.863L87.6475 124.055Z" fill="#FFE7AC"/>
<path fill-rule="evenodd" clip-rule="evenodd" d="M87.6538 124.007L87.6675 123.938L96.3344 125.745L96.3207 125.815L87.6538 124.007Z" fill="#FFE7AA"/>
<path fill-rule="evenodd" clip-rule="evenodd" d="M87.6582 123.962L87.6719 123.892L96.3388 125.7L96.3251 125.77L87.6582 123.962Z" fill="#FFE6A8"/>
<path fill-rule="evenodd" clip-rule="evenodd" d="M87.6689 123.914L87.6826 123.845L96.3494 125.653L96.3358 125.722L87.6689 123.914Z" fill="#FFE5A6"/>
<path fill-rule="evenodd" clip-rule="evenodd" d="M87.6807 123.869L87.6944 123.799L96.3611 125.607L96.3475 125.677L87.6807 123.869Z" fill="#FFE5A4"/>
<path fill-rule="evenodd" clip-rule="evenodd" d="M87.6963 123.824L87.71 123.754L96.3767 125.562L96.363 125.632L87.6963 123.824Z" fill="#FFE4A2"/>
<path fill-rule="evenodd" clip-rule="evenodd" d="M87.7017 123.777L87.7154 123.708L96.3821 125.515L96.3684 125.585L87.7017 123.777Z" fill="#FFE4A0"/>
<path fill-rule="evenodd" clip-rule="evenodd" d="M87.708 123.73L87.7216 123.661L96.3885 125.468L96.3747 125.538L87.708 123.73Z" fill="#FFE49E"/>
<path fill-rule="evenodd" clip-rule="evenodd" d="M87.7178 123.681L87.7313 123.611L96.3982 125.419L96.3845 125.489L87.7178 123.681Z" fill="#FFE39C"/>
<path fill-rule="evenodd" clip-rule="evenodd" d="M87.7222 123.638L87.7359 123.568L96.4027 125.376L96.3891 125.445L87.7222 123.638Z" fill="#FFE39A"/>
<path fill-rule="evenodd" clip-rule="evenodd" d="M87.7349 123.589L87.7486 123.519L96.4154 125.327L96.4017 125.397L87.7349 123.589Z" fill="#FFE297"/>
<path fill-rule="evenodd" clip-rule="evenodd" d="M87.7495 123.543L87.7632 123.473L96.4301 125.281L96.4164 125.351L87.7495 123.543Z" fill="#FFE296"/>
<path fill-rule="evenodd" clip-rule="evenodd" d="M87.7573 123.498L87.771 123.428L96.4377 125.236L96.4242 125.306L87.7573 123.498Z" fill="#FFE194"/>
<path fill-rule="evenodd" clip-rule="evenodd" d="M87.7656 123.45L87.7793 123.38L96.4461 125.188L96.4324 125.257L87.7656 123.45Z" fill="#FFE092"/>
<path fill-rule="evenodd" clip-rule="evenodd" d="M87.772 123.404L87.7857 123.334L96.4524 125.142L96.4387 125.212L87.772 123.404Z" fill="#FFE090"/>
<path fill-rule="evenodd" clip-rule="evenodd" d="M87.7788 123.357L87.7924 123.287L96.4592 125.095L96.4455 125.165L87.7788 123.357Z" fill="#FFDF8E"/>
<path fill-rule="evenodd" clip-rule="evenodd" d="M87.7871 123.313L87.8007 123.243L96.4675 125.051L96.4538 125.121L87.7871 123.313Z" fill="#FFDE8C"/>
<path fill-rule="evenodd" clip-rule="evenodd" d="M87.7979 123.265L87.8115 123.195L96.4784 125.003L96.4647 125.072L87.7979 123.265Z" fill="#FFDE8A"/>
<path fill-rule="evenodd" clip-rule="evenodd" d="M87.8149 123.216L87.8286 123.146L96.4955 124.954L96.4818 125.024L87.8149 123.216Z" fill="#FFDD88"/>
<path fill-rule="evenodd" clip-rule="evenodd" d="M87.8188 123.172L87.8325 123.102L96.4994 124.91L96.4857 124.979L87.8188 123.172Z" fill="#FFDD87"/>
<path fill-rule="evenodd" clip-rule="evenodd" d="M87.8306 123.124L87.8443 123.054L96.511 124.862L96.4974 124.932L87.8306 123.124Z" fill="#FFDD85"/>
<path fill-rule="evenodd" clip-rule="evenodd" d="M87.835 123.081L87.8487 123.011L96.5154 124.819L96.5017 124.888L87.835 123.081Z" fill="#FFDC83"/>
<path fill-rule="evenodd" clip-rule="evenodd" d="M87.8457 123.031L87.8594 122.961L96.5261 124.769L96.5124 124.839L87.8457 123.031Z" fill="#FFDC81"/>
<path fill-rule="evenodd" clip-rule="evenodd" d="M87.8647 122.986L87.8785 122.916L96.5452 124.724L96.5315 124.794L87.8647 122.986Z" fill="#FFDB7F"/>
<path fill-rule="evenodd" clip-rule="evenodd" d="M87.8682 122.937L87.8817 122.868L96.5486 124.675L96.5349 124.745L87.8682 122.937Z" fill="#FFDB7E"/>
<path fill-rule="evenodd" clip-rule="evenodd" d="M87.8745 122.893L87.8882 122.823L96.5551 124.631L96.5414 124.701L87.8745 122.893Z" fill="#FFDA7C"/>
<path fill-rule="evenodd" clip-rule="evenodd" d="M87.8848 122.846L87.8985 122.776L96.5654 124.584L96.5516 124.653L87.8848 122.846Z" fill="#FFDA7B"/>
<path fill-rule="evenodd" clip-rule="evenodd" d="M87.8892 122.8L87.9029 122.73L96.5698 124.538L96.556 124.608L87.8892 122.8Z" fill="#FFD97A"/>
<path fill-rule="evenodd" clip-rule="evenodd" d="M87.8979 122.751L87.9117 122.682L96.5784 124.49L96.5648 124.559L87.8979 122.751Z" fill="#FFD978"/>
<path fill-rule="evenodd" clip-rule="evenodd" d="M87.9053 122.704L87.919 122.634L96.5857 124.441L96.572 124.511L87.9053 122.704Z" fill="#FFD877"/>
<path fill-rule="evenodd" clip-rule="evenodd" d="M87.9233 122.66L87.9371 122.59L96.6038 124.398L96.5901 124.467L87.9233 122.66Z" fill="#FFD876"/>
<path fill-rule="evenodd" clip-rule="evenodd" d="M87.9307 122.612L87.9444 122.542L96.6111 124.35L96.5974 124.42L87.9307 122.612Z" fill="#FED775"/>
<path fill-rule="evenodd" clip-rule="evenodd" d="M87.938 122.567L87.9515 122.498L96.6184 124.305L96.6047 124.375L87.938 122.567Z" fill="#FED775"/>
<path fill-rule="evenodd" clip-rule="evenodd" d="M87.9478 122.52L87.9615 122.45L96.6283 124.258L96.6146 124.328L87.9478 122.52Z" fill="#FED674"/>
<path fill-rule="evenodd" clip-rule="evenodd" d="M87.9531 122.471L87.9668 122.401L96.6337 124.209L96.62 124.279L87.9531 122.471Z" fill="#FED673"/>
<path fill-rule="evenodd" clip-rule="evenodd" d="M87.9585 122.428L87.9722 122.358L96.6391 124.166L96.6254 124.236L87.9585 122.428Z" fill="#FED671"/>
<path fill-rule="evenodd" clip-rule="evenodd" d="M87.9829 122.381L87.9966 122.311L96.6633 124.119L96.6498 124.189L87.9829 122.381Z" fill="#FDD571"/>
<path fill-rule="evenodd" clip-rule="evenodd" d="M87.9854 122.335L87.999 122.266L96.6658 124.073L96.6521 124.143L87.9854 122.335Z" fill="#FDD570"/>
<path fill-rule="evenodd" clip-rule="evenodd" d="M87.9917 122.288L88.0054 122.218L96.6721 124.026L96.6584 124.096L87.9917 122.288Z" fill="#FDD46F"/>
<path fill-rule="evenodd" clip-rule="evenodd" d="M88.002 122.24L88.0156 122.17L96.6824 123.978L96.6687 124.048L88.002 122.24Z" fill="#FDD46F"/>
<path fill-rule="evenodd" clip-rule="evenodd" d="M88.0073 122.193L88.0209 122.124L96.6877 123.931L96.674 124.001L88.0073 122.193Z" fill="#FDD36E"/>
<path fill-rule="evenodd" clip-rule="evenodd" d="M88.0151 122.147L88.0289 122.077L96.6957 123.885L96.682 123.955L88.0151 122.147Z" fill="#FDD36D"/>
<path fill-rule="evenodd" clip-rule="evenodd" d="M88.0259 122.102L88.0396 122.032L96.7065 123.84L96.6928 123.91L88.0259 122.102Z" fill="#FCD26D"/>
<path fill-rule="evenodd" clip-rule="evenodd" d="M88.0405 122.055L88.0543 121.985L96.7211 123.793L96.7074 123.863L88.0405 122.055Z" fill="#FCD26C"/>
<path fill-rule="evenodd" clip-rule="evenodd" d="M88.0493 122.012L88.063 121.942L96.7297 123.75L96.7162 123.819L88.0493 122.012Z" fill="#FCD16B"/>
<path fill-rule="evenodd" clip-rule="evenodd" d="M88.0552 121.96L88.0689 121.89L96.7356 123.698L96.7221 123.768L88.0552 121.96Z" fill="#FBD06A"/>
<path fill-rule="evenodd" clip-rule="evenodd" d="M88.0674 121.917L88.0811 121.847L96.7478 123.655L96.7341 123.725L88.0674 121.917Z" fill="#FBCF69"/>
<path fill-rule="evenodd" clip-rule="evenodd" d="M88.0703 121.869L88.084 121.799L96.7507 123.607L96.737 123.676L88.0703 121.869Z" fill="#FACF68"/>
<path fill-rule="evenodd" clip-rule="evenodd" d="M88.0801 121.821L88.0936 121.751L96.7605 123.559L96.7468 123.629L88.0801 121.821Z" fill="#FACE68"/>
<path fill-rule="evenodd" clip-rule="evenodd" d="M88.0991 121.777L88.1128 121.707L96.7797 123.515L96.766 123.584L88.0991 121.777Z" fill="#FACE67"/>
<path fill-rule="evenodd" clip-rule="evenodd" d="M88.1035 121.731L88.1172 121.662L96.7841 123.469L96.7704 123.539L88.1035 121.731Z" fill="#F9CD67"/>
<path fill-rule="evenodd" clip-rule="evenodd" d="M88.1089 121.682L88.1226 121.612L96.7895 123.42L96.7758 123.49L88.1089 121.682Z" fill="#F9CD66"/>
<path fill-rule="evenodd" clip-rule="evenodd" d="M88.1191 121.635L88.1328 121.565L96.7996 123.373L96.786 123.443L88.1191 121.635Z" fill="#F8CC66"/>
<path fill-rule="evenodd" clip-rule="evenodd" d="M88.1245 121.591L88.1382 121.521L96.8049 123.329L96.7914 123.399L88.1245 121.591Z" fill="#F8CC65"/>
<path fill-rule="evenodd" clip-rule="evenodd" d="M88.1323 121.543L88.146 121.474L96.8127 123.281L96.7991 123.351L88.1323 121.543Z" fill="#F7CA64"/>
<path fill-rule="evenodd" clip-rule="evenodd" d="M88.1431 121.496L88.1568 121.427L96.8235 123.234L96.8098 123.304L88.1431 121.496Z" fill="#F6CA63"/>
<path fill-rule="evenodd" clip-rule="evenodd" d="M88.1577 121.451L88.1713 121.381L96.8381 123.189L96.8244 123.258L88.1577 121.451Z" fill="#F6C963"/>
<path fill-rule="evenodd" clip-rule="evenodd" d="M88.165 121.402L88.1787 121.333L96.8456 123.14L96.8319 123.21L88.165 121.402Z" fill="#F6C862"/>
<path fill-rule="evenodd" clip-rule="evenodd" d="M88.1748 121.359L88.1885 121.29L96.8554 123.097L96.8417 123.167L88.1748 121.359Z" fill="#F6C862"/>
<path fill-rule="evenodd" clip-rule="evenodd" d="M88.1846 121.309L88.1983 121.24L96.8652 123.048L96.8515 123.117L88.1846 121.309Z" fill="#F5C762"/>
<path fill-rule="evenodd" clip-rule="evenodd" d="M88.1875 121.264L88.2012 121.194L96.868 123.002L96.8544 123.071L88.1875 121.264Z" fill="#F5C661"/>
<path fill-rule="evenodd" clip-rule="evenodd" d="M88.1929 121.219L88.2066 121.149L96.8733 122.957L96.8598 123.027L88.1929 121.219Z" fill="#F4C660"/>
<path fill-rule="evenodd" clip-rule="evenodd" d="M88.2173 121.171L88.231 121.101L96.8977 122.909L96.884 122.979L88.2173 121.171Z" fill="#F3C55F"/>
<path fill-rule="evenodd" clip-rule="evenodd" d="M88.2217 121.124L88.2354 121.054L96.9021 122.862L96.8884 122.931L88.2217 121.124Z" fill="#F3C55F"/>
<path fill-rule="evenodd" clip-rule="evenodd" d="M88.2334 121.078L88.247 121.008L96.9138 122.816L96.9001 122.886L88.2334 121.078Z" fill="#F2C35F"/>
<path fill-rule="evenodd" clip-rule="evenodd" d="M88.2397 121.029L88.2533 120.959L96.9202 122.767L96.9065 122.837L88.2397 121.029Z" fill="#F2C35E"/>
<path fill-rule="evenodd" clip-rule="evenodd" d="M88.2417 120.986L88.2554 120.917L96.9223 122.724L96.9086 122.794L88.2417 120.986Z" fill="#F1C25E"/>
<path fill-rule="evenodd" clip-rule="evenodd" d="M88.2495 120.941L88.2632 120.871L96.9301 122.679L96.9164 122.749L88.2495 120.941Z" fill="#F1C25D"/>
<path fill-rule="evenodd" clip-rule="evenodd" d="M88.2666 120.89L88.2803 120.82L96.947 122.628L96.9335 122.698L88.2666 120.89Z" fill="#F0C15C"/>
<path fill-rule="evenodd" clip-rule="evenodd" d="M88.2749 120.847L88.2886 120.777L96.9553 122.585L96.9418 122.654L88.2749 120.847Z" fill="#F0C05C"/>
<path fill-rule="evenodd" clip-rule="evenodd" d="M88.2847 120.799L88.2984 120.729L96.9651 122.537L96.9514 122.607L88.2847 120.799Z" fill="#F0C05C"/>
<path fill-rule="evenodd" clip-rule="evenodd" d="M88.293 120.752L88.3067 120.682L96.9734 122.49L96.9597 122.56L88.293 120.752Z" fill="#EFBF5B"/>
<path fill-rule="evenodd" clip-rule="evenodd" d="M88.3018 120.707L88.3153 120.637L96.9822 122.445L96.9685 122.515L88.3018 120.707Z" fill="#EFBE5B"/>
<path fill-rule="evenodd" clip-rule="evenodd" d="M88.3047 120.662L88.3182 120.592L96.9851 122.4L96.9714 122.47L88.3047 120.662Z" fill="#EEBE5B"/>
<path fill-rule="evenodd" clip-rule="evenodd" d="M88.3198 120.613L88.3335 120.543L97.0004 122.351L96.9867 122.421L88.3198 120.613Z" fill="#EEBD5B"/>
<path fill-rule="evenodd" clip-rule="evenodd" d="M88.3335 120.566L88.3472 120.496L97.0141 122.304L97.0003 122.374L88.3335 120.566Z" fill="#EDBD59"/>
<path fill-rule="evenodd" clip-rule="evenodd" d="M88.3433 120.522L88.357 120.452L97.0237 122.26L97.0101 122.33L88.3433 120.522Z" fill="#EDBD59"/>
<path fill-rule="evenodd" clip-rule="evenodd" d="M88.3506 120.474L88.3643 120.404L97.031 122.212L97.0175 122.281L88.3506 120.474Z" fill="#ECBB59"/>
<path fill-rule="evenodd" clip-rule="evenodd" d="M88.3569 120.425L88.3707 120.355L97.0374 122.163L97.0237 122.233L88.3569 120.425Z" fill="#ECBB59"/>
<path fill-rule="evenodd" clip-rule="evenodd" d="M88.3613 120.38L88.3751 120.311L97.0418 122.118L97.0281 122.188L88.3613 120.38Z" fill="#ECBB59"/>
<path fill-rule="evenodd" clip-rule="evenodd" d="M88.3701 120.333L88.3837 120.263L97.0506 122.071L97.0368 122.141L88.3701 120.333Z" fill="#EBBA58"/>
<path fill-rule="evenodd" clip-rule="evenodd" d="M88.3838 120.29L88.3974 120.221L97.0642 122.028L97.0505 122.098L88.3838 120.29Z" fill="#EBBA58"/>
<path fill-rule="evenodd" clip-rule="evenodd" d="M88.3921 120.24L88.4058 120.17L97.0727 121.978L97.059 122.048L88.3921 120.24Z" fill="#EBBA58"/>
<path fill-rule="evenodd" clip-rule="evenodd" d="M88.4019 120.195L88.4156 120.125L97.0824 121.933L97.0687 122.003L88.4019 120.195Z" fill="#EAB958"/>
<path fill-rule="evenodd" clip-rule="evenodd" d="M88.4111 120.15L88.4249 120.08L97.0917 121.888L97.078 121.958L88.4111 120.15Z" fill="#EAB958"/>
<path fill-rule="evenodd" clip-rule="evenodd" d="M88.4209 120.101L88.4346 120.032L97.1013 121.839L97.0878 121.909L88.4209 120.101Z" fill="#EAB958"/>
<path fill-rule="evenodd" clip-rule="evenodd" d="M88.4253 120.055L88.439 119.985L97.1057 121.793L97.092 121.862L88.4253 120.055Z" fill="#E9B857"/>
<path fill-rule="evenodd" clip-rule="evenodd" d="M88.438 120.009L88.4517 119.939L97.1184 121.747L97.1047 121.817L88.438 120.009Z" fill="#E9B757"/>
<path fill-rule="evenodd" clip-rule="evenodd" d="M88.4517 119.961L88.4652 119.891L97.1321 121.699L97.1184 121.768L88.4517 119.961Z" fill="#E9B756"/>
<path fill-rule="evenodd" clip-rule="evenodd" d="M88.4604 119.917L88.474 119.848L97.1409 121.656L97.1272 121.725L88.4604 119.917Z" fill="#E8B756"/>
<path fill-rule="evenodd" clip-rule="evenodd" d="M88.4678 119.87L88.4815 119.8L97.1484 121.608L97.1347 121.678L88.4678 119.87Z" fill="#E8B756"/>
<path fill-rule="evenodd" clip-rule="evenodd" d="M88.4741 119.821L88.4878 119.751L97.1547 121.559L97.141 121.629L88.4741 119.821Z" fill="#E8B756"/>
<path fill-rule="evenodd" clip-rule="evenodd" d="M88.4819 119.778L88.4956 119.708L97.1625 121.516L97.1488 121.586L88.4819 119.778Z" fill="#E8B656"/>
<path fill-rule="evenodd" clip-rule="evenodd" d="M88.4902 119.728L88.5039 119.659L97.1707 121.466L97.1571 121.536L88.4902 119.728Z" fill="#E7B656"/>
<path fill-rule="evenodd" clip-rule="evenodd" d="M88.501 119.682L88.5147 119.612L97.1814 121.42L97.1677 121.489L88.501 119.682Z" fill="#E7B656"/>
<path fill-rule="evenodd" clip-rule="evenodd" d="M88.5181 119.638L88.5318 119.568L97.1985 121.376L97.1848 121.446L88.5181 119.638Z" fill="#E7B656"/>
<path fill-rule="evenodd" clip-rule="evenodd" d="M88.522 119.59L88.5355 119.52L97.2024 121.328L97.1887 121.398L88.522 119.59Z" fill="#E7B656"/>
<path fill-rule="evenodd" clip-rule="evenodd" d="M88.5337 119.545L88.5473 119.475L97.2141 121.283L97.2004 121.353L88.5337 119.545Z" fill="#E7B656"/>
<path fill-rule="evenodd" clip-rule="evenodd" d="M88.5391 119.499L88.9917 117.191L97.6585 118.999L97.2059 121.307L88.5391 119.499Z" fill="#E7B656"/>
</g>
</svg>
